<svg width="68" height="143" viewBox="0 0 68 143" fill="none" xmlns="http://www.w3.org/2000/svg">
<path d="M2.38419e-07 42.5693H-4V46.5693H2.38419e-07V42.5693ZM2.38419e-07 0.969337V-3.03066H-4V0.969337H2.38419e-07ZM67.8 0.969337H71.8V-3.03066H67.8V0.969337ZM67.8 142.569V146.569H71.8V142.569H67.8ZM21.2 142.569H17.2V146.569H21.2V142.569ZM21.2 42.5693H25.2V38.5693H21.2V42.5693ZM4 42.5693V0.969337H-4V42.5693H4ZM2.38419e-07 4.96934H67.8V-3.03066H2.38419e-07V4.96934ZM63.8 0.969337V142.569H71.8V0.969337H63.8ZM67.8 138.569H21.2V146.569H67.8V138.569ZM25.2 142.569V42.5693H17.2V142.569H25.2ZM21.2 38.5693H2.38419e-07V46.5693H21.2V38.5693Z" fill="#FFCB37"/>
</svg>
