<svg width="104" height="144" viewBox="0 0 104 144" fill="none" xmlns="http://www.w3.org/2000/svg">
<path d="M0.6 110.457L-1.81168 107.266L-3.4 108.467V110.457H0.6ZM42 75.2574L39.1716 72.429L39.1623 72.4382L39.1531 72.4475L42 75.2574ZM44.6 41.2574L41.0223 39.4686L41.001 39.5112L40.9807 39.5542L44.6 41.2574ZM43 54.2574V58.2574H47V54.2574H43ZM0 54.2574L-3.99792 54.1284L-4.13111 58.2574H0V54.2574ZM8 23.6574L4.62072 21.5172L4.6079 21.5375L4.59532 21.5579L8 23.6574ZM27.6 6.05741L25.9085 2.43268H25.9085L27.6 6.05741ZM90.8 12.8574L87.8789 15.59L87.8906 15.6025L87.9023 15.6149L90.8 12.8574ZM90 79.0574L86.8 76.6574V76.6574L90 79.0574ZM58.2 108.057L56.0548 104.681L44.4465 112.057H58.2V108.057ZM104 108.057H108V104.057H104V108.057ZM104 143.857V147.857H108V143.857H104ZM0.6 143.857H-3.4V147.857H0.6V143.857ZM3.01168 113.649C20.5623 100.385 34.5276 88.5223 44.8469 78.0673L39.1531 72.4475C29.2057 82.5258 15.5711 94.1296 -1.81168 107.266L3.01168 113.649ZM44.8284 78.0858C55.3053 67.609 61.4 57.4271 61.4 47.6574H53.4C53.4 54.1544 49.228 62.3725 39.1716 72.429L44.8284 78.0858ZM61.4 47.6574C61.4 43.9801 60.7787 40.5089 58.9269 37.8636C56.8932 34.9582 53.8172 33.6574 50.4 33.6574V41.6574C51.6495 41.6574 52.0735 42.0233 52.3731 42.4513C52.8547 43.1393 53.4 44.6681 53.4 47.6574H61.4ZM50.4 33.6574C48.4513 33.6574 46.5427 34.1024 44.8405 35.1589C43.1399 36.2145 41.8933 37.7266 41.0223 39.4686L48.1777 43.0463C48.5067 42.3883 48.8268 42.1004 49.0595 41.956C49.2906 41.8125 49.682 41.6574 50.4 41.6574V33.6574ZM40.9807 39.5542C40.1807 41.2542 39.716 43.3948 39.43 45.7188C39.1365 48.1032 39 50.9618 39 54.2574H47C47 51.153 47.1302 48.645 47.37 46.696C47.6173 44.6867 47.9526 43.5273 48.2193 42.9606L40.9807 39.5542ZM43 50.2574H0V58.2574H43V50.2574ZM3.99792 54.3864C4.3824 42.4674 6.93654 33.0026 11.4047 25.757L4.59532 21.5579C-0.803211 30.3122 -3.5824 41.2475 -3.99792 54.1284L3.99792 54.3864ZM11.3793 25.7976C16.0679 18.3946 22.0352 13.0684 29.2915 9.68214L25.9085 2.43268C17.1648 6.51306 10.0655 12.9202 4.62072 21.5172L11.3793 25.7976ZM29.2915 9.68214C36.7169 6.217 44.9327 4.45741 54 4.45741V-3.54259C43.8673 -3.54259 34.4831 -1.56884 25.9085 2.43268L29.2915 9.68214ZM54 4.45741C70.2303 4.45741 81.204 8.45478 87.8789 15.59L93.7211 10.1248C84.9293 0.726707 71.3697 -3.54259 54 -3.54259V4.45741ZM87.9023 15.6149C95.0221 23.0966 98.6 32.2255 98.6 43.2574H106.6C106.6 30.2893 102.311 19.1516 93.6977 10.1L87.9023 15.6149ZM98.6 43.2574C98.6 54.9673 94.7383 66.073 86.8 76.6574L93.2 81.4574C102.062 69.6419 106.6 56.8809 106.6 43.2574H98.6ZM86.8 76.6574C78.7131 87.44 68.4812 96.7854 56.0548 104.681L60.3452 111.434C73.5188 103.063 84.487 93.0748 93.2 81.4574L86.8 76.6574ZM58.2 112.057H104V104.057H58.2V112.057ZM100 108.057V143.857H108V108.057H100ZM104 139.857H0.6V147.857H104V139.857ZM4.6 143.857V110.457H-3.4V143.857H4.6Z" fill="#FFCB37"/>
</svg>
