<svg width="106" height="151" viewBox="0 0 106 151" fill="none" xmlns="http://www.w3.org/2000/svg">
<path d="M97.4 20.1293L93.9832 22.2091L93.9995 22.2359L94.0163 22.2625L97.4 20.1293ZM96.6 62.9293L99.6535 65.5131L99.6696 65.494L99.6855 65.4748L96.6 62.9293ZM81.8 73.5293L80.5074 69.7439L77.8 70.6684V73.5293H81.8ZM81.8 74.3293H77.8V77.1013L80.3955 78.0746L81.8 74.3293ZM99.8 130.329L103.211 132.418L99.8 130.329ZM82.6 145.529L80.8628 141.926L80.85 141.932L80.8373 141.939L82.6 145.529ZM15.6 138.529L18.1689 135.463L15.6 138.529ZM0.4 99.7293V95.7293H-3.66107L-3.59954 99.7899L0.4 99.7293ZM43.6 99.7293L47.5938 99.9512L47.8284 95.7293H43.6V99.7293ZM45.6 110.729L42.218 112.865L42.2845 112.97L42.3573 113.071L45.6 110.729ZM60.4 111.729L63.3392 114.442L63.3891 114.388L63.437 114.332L60.4 111.729ZM59 96.1293L56.4393 99.2022L56.531 99.2787L56.6272 99.3495L59 96.1293ZM39.2 93.1293H35.2V97.1293H39.2V93.1293ZM39.2 57.3293V53.3293H35.2V57.3293H39.2ZM46.4 57.3293L46.6349 53.3362L46.5176 53.3293H46.4V57.3293ZM57.8 39.1293L54.7271 41.69L54.7876 41.7626L54.8514 41.8322L57.8 39.1293ZM45.2 49.1293V53.1293H49.2V49.1293H45.2ZM2 49.1293L-1.99873 49.0285L-2.10211 53.1293H2V49.1293ZM15.8 12.7293L13.0599 9.81522L13.049 9.8255L13.0381 9.83587L15.8 12.7293ZM53.6 4.12929C63.6896 4.12929 72.0642 5.85446 78.8628 9.13236L82.3372 1.92622C74.2025 -1.99588 64.577 -3.87071 53.6 -3.87071V4.12929ZM78.8628 9.13236C85.7443 12.4502 90.7102 16.8319 93.9832 22.2091L100.817 18.0495C96.6232 11.16 90.389 5.80834 82.3372 1.92622L78.8628 9.13236ZM94.0163 22.2625C97.4532 27.7142 99.2 33.8984 99.2 40.9293H107.2C107.2 32.4935 105.08 24.8111 100.784 17.9961L94.0163 22.2625ZM99.2 40.9293C99.2 49.6589 97.145 55.9831 93.5145 60.3838L99.6855 65.4748C104.855 59.2088 107.2 50.8663 107.2 40.9293H99.2ZM93.5465 60.3455C89.5294 65.093 85.1751 68.1501 80.5074 69.7439L83.0926 77.3147C89.3583 75.1752 94.8707 71.1656 99.6535 65.5131L93.5465 60.3455ZM77.8 73.5293V74.3293H85.8V73.5293H77.8ZM80.3955 78.0746C87.8379 80.8655 93.1154 84.7314 96.5517 89.5134C99.977 94.2803 101.8 100.273 101.8 107.729H109.8C109.8 98.9188 107.623 91.2116 103.048 84.8452C98.4846 78.4939 91.7621 73.7931 83.2045 70.584L80.3955 78.0746ZM101.8 107.729C101.8 115.612 99.9609 122.406 96.3886 128.241L103.211 132.418C107.639 125.186 109.8 116.913 109.8 107.729H101.8ZM96.3886 128.241C92.8227 134.065 87.6968 138.631 80.8628 141.926L84.3372 149.132C92.4366 145.227 98.7773 139.66 103.211 132.418L96.3886 128.241ZM80.8373 141.939C74.1684 145.212 66.0659 146.929 56.4 146.929V154.929C67.0007 154.929 76.3649 153.046 84.3627 149.12L80.8373 141.939ZM56.4 146.929C39.6793 146.929 27.0995 142.946 18.1689 135.463L13.0311 141.595C23.8339 150.646 38.454 154.929 56.4 154.929V146.929ZM18.1689 135.463C9.48689 128.189 4.65538 116.554 4.39954 99.6687L-3.59954 99.7899C-3.32205 118.104 1.97978 132.336 13.0311 141.595L18.1689 135.463ZM0.4 103.729H43.6V95.7293H0.4V103.729ZM39.6062 99.5074C39.319 104.676 39.9783 109.319 42.218 112.865L48.982 108.593C48.0217 107.073 47.3477 104.382 47.5938 99.9512L39.6062 99.5074ZM42.3573 113.071C45.1137 116.888 49.5285 118.329 54.4 118.329V110.329C51.0049 110.329 49.553 109.371 48.8427 108.387L42.3573 113.071ZM54.4 118.329C57.8943 118.329 60.9671 117.012 63.3392 114.442L57.4608 109.016C56.6329 109.913 55.7057 110.329 54.4 110.329V118.329ZM63.437 114.332C65.7736 111.606 66.8 108.224 66.8 104.529H58.8C58.8 106.701 58.2264 108.119 57.363 109.126L63.437 114.332ZM66.8 104.529C66.8 99.7931 65.1276 95.6757 61.3728 92.9091L56.6272 99.3495C57.9391 100.316 58.8 101.799 58.8 104.529H66.8ZM61.5607 93.0564C58.0363 90.1194 52.6851 89.1293 46.6 89.1293V97.1293C52.2482 97.1293 55.1637 98.1392 56.4393 99.2022L61.5607 93.0564ZM46.6 89.1293H39.2V97.1293H46.6V89.1293ZM43.2 93.1293V57.3293H35.2V93.1293H43.2ZM39.2 61.3293H46.4V53.3293H39.2V61.3293ZM46.1651 61.3224C51.1472 61.6155 55.7149 60.84 59.0875 58.1617C62.6079 55.3661 64 51.1765 64 46.5293H56C56 49.6155 55.1254 51.0924 54.1125 51.8969C52.9518 52.8186 50.7194 53.5765 46.6349 53.3362L46.1651 61.3224ZM64 46.5293C64 42.7133 63.1749 39.0732 60.7486 36.4264L54.8514 41.8322C55.3585 42.3854 56 43.6786 56 46.5293H64ZM60.8729 36.5686C58.7585 34.0313 55.8871 32.7293 52.6 32.7293V40.7293C53.5795 40.7293 54.1748 41.0273 54.7271 41.69L60.8729 36.5686ZM52.6 32.7293C48.768 32.7293 45.5921 34.4668 43.6152 37.7795C41.8333 40.7653 41.2 44.7288 41.2 49.1293H49.2C49.2 45.2631 49.8001 43.0266 50.4849 41.8791C50.9746 41.0585 51.4987 40.7293 52.6 40.7293V32.7293ZM45.2 45.1293H2V53.1293H45.2V45.1293ZM5.99873 49.2301C6.38051 34.086 10.7399 23.0892 18.5619 15.6227L13.0381 9.83587C3.26013 19.1694 -1.58051 32.4393 -1.99873 49.0285L5.99873 49.2301ZM18.5401 15.6434C26.5157 8.14389 38.0107 4.12929 53.6 4.12929V-3.87071C36.656 -3.87071 22.9509 0.514694 13.0599 9.81522L18.5401 15.6434Z" fill="#FFCB37"/>
</svg>
