<svg width="149" height="140" viewBox="0 0 149 140" fill="none" xmlns="http://www.w3.org/2000/svg">
<g filter="url(#filter0_d_157_63)">
<rect x="20" y="20.6028" width="109" height="99" rx="16" fill="url(#paint0_linear_157_63)" shape-rendering="crispEdges"/>
<path d="M55.705 80.7829C66.3359 73.1941 71.6514 67.1599 71.6514 62.6802C71.6514 59.9389 70.4646 58.5682 68.0911 58.5682C66.7538 58.5682 65.7676 59.0362 65.1324 59.9723C64.5307 60.9083 64.1964 62.3626 64.1295 64.335H55.7551C55.9557 60.0224 57.2595 56.7796 59.6665 54.6066C62.0735 52.4337 65.1157 51.3472 68.7931 51.3472C72.6376 51.3472 75.5294 52.3166 77.4684 54.2556C79.4408 56.1946 80.427 58.7186 80.427 61.8277C80.427 65.2711 79.1065 68.6476 76.4655 71.9572C73.8244 75.2334 70.6652 78.0082 66.9878 80.2815H80.9786V87.2016H55.705V80.7829ZM92.7332 79.0278V87.6028H83.8573V79.0278H92.7332Z" fill="white"/>
<rect x="22.5" y="23.1028" width="104" height="94" rx="13.5" stroke="#D9A000" stroke-width="5" shape-rendering="crispEdges"/>
</g>
<defs>
<filter id="filter0_d_157_63" x="0" y="0.602783" width="149" height="139" filterUnits="userSpaceOnUse" color-interpolation-filters="sRGB">
<feFlood flood-opacity="0" result="BackgroundImageFix"/>
<feColorMatrix in="SourceAlpha" type="matrix" values="0 0 0 0 0 0 0 0 0 0 0 0 0 0 0 0 0 0 127 0" result="hardAlpha"/>
<feOffset/>
<feGaussianBlur stdDeviation="10"/>
<feComposite in2="hardAlpha" operator="out"/>
<feColorMatrix type="matrix" values="0 0 0 0 0.662745 0 0 0 0 0.384314 0 0 0 0 0.301961 0 0 0 1 0"/>
<feBlend mode="normal" in2="BackgroundImageFix" result="effect1_dropShadow_157_63"/>
<feBlend mode="normal" in="SourceGraphic" in2="effect1_dropShadow_157_63" result="shape"/>
</filter>
<linearGradient id="paint0_linear_157_63" x1="111.628" y1="70.1028" x2="-8.46433" y2="106.892" gradientUnits="userSpaceOnUse">
<stop stop-color="#232A31" stop-opacity="0.7"/>
<stop offset="1" stop-color="#E5A524" stop-opacity="0.1"/>
</linearGradient>
</defs>
</svg>
